<?xml version="1.0" encoding="utf-8"?>
<!-- Generator: Adobe Illustrator 27.5.0, SVG Export Plug-In . SVG Version: 6.00 Build 0)  -->
<svg version="1.1" id="Layer_1" xmlns="http://www.w3.org/2000/svg" xmlns:xlink="http://www.w3.org/1999/xlink" x="0px" y="0px"
	 viewBox="0 0 125 125" style="enable-background:new 0 0 125 125;" xml:space="preserve">
<style type="text/css">
	.st0{fill-rule:evenodd;clip-rule:evenodd;fill:none;stroke:#D9D9D9;stroke-miterlimit:10;}
</style>
<g>
	<path class="st0" d="M15.4,6.1h94.3c7.9,0,14.3,6.4,14.3,14.3v84.3c0,7.9-6.4,14.3-14.3,14.3H15.4c-7.9,0-14.3-6.4-14.3-14.3V20.3
		C1.1,12.5,7.5,6.1,15.4,6.1L15.4,6.1z M62.4,30.9c-7.7,4.4-12.9,12.8-12.9,22.3C49.6,67.4,61.1,79,75.3,79c6.8,0,12.9-2.6,17.5-6.8
		c2.3-2.1,4.9-0.6,4,1.9C92,87.9,78.9,97.8,63.4,97.8C43.9,97.8,28,82,28,62.4c0-18.7,14.6-34.1,33.1-35.2
		C64.5,27,65.4,29.2,62.4,30.9L62.4,30.9z"/>
</g>
</svg>
