<?xml version="1.0" encoding="utf-8"?>
<!-- Generator: Adobe Illustrator 27.5.0, SVG Export Plug-In . SVG Version: 6.00 Build 0)  -->
<svg version="1.1" id="Layer_1" xmlns="http://www.w3.org/2000/svg" xmlns:xlink="http://www.w3.org/1999/xlink" x="0px" y="0px"
	 viewBox="0 0 125 125" style="enable-background:new 0 0 125 125;" xml:space="preserve">
<style type="text/css">
	.st0{fill-rule:evenodd;clip-rule:evenodd;fill:none;stroke:#D9D9D9;stroke-miterlimit:10;}
</style>
<g>
	<path class="st0" d="M15.4,6.1h94.3c7.9,0,14.3,6.4,14.3,14.3v84.3c0,7.9-6.4,14.3-14.3,14.3H15.4c-7.9,0-14.3-6.4-14.3-14.3V20.3
		C1.1,12.5,7.5,6.1,15.4,6.1L15.4,6.1z M44.1,34.2c-0.6-1.1-0.3-2.5,0.8-3.1s2.5-0.3,3.2,0.8l3,5.1c0.6,1.1,0.3,2.5-0.8,3.2
		c-1.1,0.6-2.5,0.3-3.2-0.8L44.1,34.2L44.1,34.2L44.1,34.2z M62.5,41.9c5.7,0,10.9,2.3,14.6,6c3.7,3.7,6.1,8.9,6.1,14.6
		s-2.3,10.9-6.1,14.6c-3.7,3.7-8.9,6.1-14.6,6.1c-5.7,0-10.9-2.3-14.6-6.1c-3.7-3.7-6-8.9-6-14.6c0-5.7,2.3-10.9,6-14.6
		C51.6,44.2,56.8,41.9,62.5,41.9L62.5,41.9L62.5,41.9z M60.7,28.8c0-1.3,1-2.3,2.3-2.3c1.3,0,2.3,1,2.3,2.3v5.9c0,1.3-1,2.3-2.3,2.3
		s-2.3-1-2.3-2.3V28.8L60.7,28.8L60.7,28.8z M77.8,32.4c0.6-1.1,2-1.5,3.1-0.9c1.1,0.6,1.5,2,0.9,3.1l-3,5.1c-0.6,1.1-2,1.5-3.1,0.8
		c-1.1-0.6-1.5-2-0.8-3.1L77.8,32.4L77.8,32.4L77.8,32.4z M90.8,44.1c1.1-0.6,2.5-0.3,3.2,0.8s0.3,2.5-0.8,3.2l-5.1,3
		c-1.1,0.6-2.5,0.3-3.1-0.8s-0.3-2.5,0.8-3.2L90.8,44.1L90.8,44.1L90.8,44.1z M96.2,60.7c1.3,0,2.3,1,2.3,2.3c0,1.3-1,2.3-2.3,2.3
		h-5.9c-1.3,0-2.3-1-2.3-2.3s1-2.3,2.3-2.3H96.2L96.2,60.7L96.2,60.7z M92.6,77.8c1.1,0.6,1.5,2,0.8,3.1c-0.6,1.1-2,1.5-3.1,0.9
		l-5.1-3c-1.1-0.6-1.5-2-0.9-3.1c0.6-1.1,2-1.5,3.1-0.8L92.6,77.8L92.6,77.8L92.6,77.8z M80.9,90.8c0.6,1.1,0.3,2.5-0.8,3.2
		c-1.1,0.6-2.5,0.3-3.2-0.8l-3-5.1c-0.6-1.1-0.3-2.5,0.8-3.1c1.1-0.6,2.5-0.3,3.1,0.8L80.9,90.8L80.9,90.8L80.9,90.8z M64.3,96.2
		c0,1.3-1,2.3-2.3,2.3c-1.3,0-2.3-1-2.3-2.3v-5.9c0-1.3,1-2.3,2.3-2.3c1.3,0,2.3,1,2.3,2.3V96.2L64.3,96.2L64.3,96.2z M47.2,92.6
		c-0.6,1.1-2,1.5-3.1,0.8c-1.1-0.6-1.5-2-0.8-3.1l3-5.1c0.6-1.1,2-1.5,3.1-0.9s1.5,2,0.8,3.1L47.2,92.6L47.2,92.6L47.2,92.6z
		 M34.2,80.9c-1.1,0.6-2.5,0.3-3.1-0.8c-0.6-1.1-0.3-2.5,0.8-3.2l5.1-3c1.1-0.6,2.5-0.3,3.2,0.8c0.6,1.1,0.3,2.5-0.8,3.2L34.2,80.9
		L34.2,80.9L34.2,80.9z M28.8,64.3c-1.3,0-2.3-1-2.3-2.3s1-2.3,2.3-2.3h5.9c1.3,0,2.3,1,2.3,2.3s-1,2.3-2.3,2.3H28.8L28.8,64.3
		L28.8,64.3z M32.4,47.2c-1.1-0.6-1.5-2-0.9-3.1s2-1.5,3.1-0.8l5.1,3c1.1,0.6,1.5,2,0.8,3.1s-2,1.5-3.1,0.8L32.4,47.2L32.4,47.2
		L32.4,47.2z"/>
</g>
</svg>
